# 3ds Max Wavefront OBJ Exporter v0.97b - (c)2007 guruware
# File Created: 27.03.2012 13:59:01

mtllib 14028_Wood_Fruit_Crate_SG_v2_L1.mtl

#
# object 14028_wood_fruit_crate_SG
#

v  30.0000 15.9140 21.8437
v  30.0000 15.9140 11.8437
v  -30.0000 15.9140 11.8437
v  -30.0000 15.9140 21.8437
v  30.0000 14.6281 21.8437
v  -30.0000 14.6281 21.8437
v  -30.0000 14.6281 11.8437
v  30.0000 14.6281 11.8437
v  30.0000 5.0000 0.0000
v  30.0000 -5.0000 0.0000
v  -30.0000 -5.0000 0.0000
v  -30.0000 5.0000 0.0000
v  30.0000 5.0000 1.2859
v  -30.0000 5.0000 1.2859
v  -30.0000 -5.0000 1.2859
v  30.0000 -5.0000 1.2859
v  30.0000 -5.9634 -0.0000
v  30.0000 -15.9634 -0.0000
v  -30.0000 -15.9634 -0.0000
v  -30.0000 -5.9634 -0.0000
v  30.0000 -5.9634 1.2859
v  -30.0000 -5.9634 1.2859
v  -30.0000 -15.9634 1.2859
v  30.0000 -15.9634 1.2859
v  30.0000 15.9630 0.0000
v  30.0000 5.9630 0.0000
v  -30.0000 5.9630 0.0000
v  -30.0000 15.9630 0.0000
v  30.0000 15.9630 1.2859
v  -30.0000 15.9630 1.2859
v  -30.0000 5.9630 1.2859
v  30.0000 5.9630 1.2859
v  30.0000 15.9140 11.5504
v  30.0000 15.9140 1.5504
v  -30.0000 15.9140 1.5504
v  -30.0000 15.9140 11.5504
v  30.0000 14.6281 11.5504
v  -30.0000 14.6281 11.5504
v  -30.0000 14.6281 1.5504
v  30.0000 14.6281 1.5504
v  30.0000 -14.6592 21.8437
v  30.0000 -14.6592 11.8437
v  -30.0000 -14.6592 11.8437
v  -30.0000 -14.6592 21.8437
v  30.0000 -15.9451 21.8437
v  -30.0000 -15.9451 21.8437
v  -30.0000 -15.9451 11.8437
v  30.0000 -15.9451 11.8437
v  30.0000 -14.6592 11.5504
v  30.0000 -14.6592 1.5504
v  -30.0000 -14.6592 1.5504
v  -30.0000 -14.6592 11.5504
v  30.0000 -15.9451 11.5504
v  -30.0000 -15.9451 11.5504
v  -30.0000 -15.9451 1.5504
v  30.0000 -15.9451 1.5504
v  -28.7153 -14.4968 21.8437
v  -28.7153 -14.4968 11.8437
v  -28.7153 14.3032 11.8437
v  -28.7153 14.3032 21.8437
v  -30.0012 -14.4968 21.8437
v  -30.0012 14.3032 21.8437
v  -30.0012 14.3032 11.8437
v  -30.0012 -14.4968 11.8437
v  -28.7153 -14.4968 11.5504
v  -28.7153 -14.4968 1.5504
v  -28.7153 14.3032 1.5504
v  -28.7153 14.3032 11.5504
v  -30.0012 -14.4968 11.5504
v  -30.0012 14.3032 11.5504
v  -30.0012 14.3032 1.5504
v  -30.0012 -14.4968 1.5504
v  29.9840 -14.4968 21.8437
v  29.9840 -14.4968 11.8437
v  29.9840 14.3032 11.8437
v  29.9840 14.3032 21.8437
v  28.6981 -14.4968 21.8437
v  28.6981 14.3032 21.8437
v  28.6981 14.3032 11.8437
v  28.6981 -14.4968 11.8437
v  29.9840 -14.4968 11.5504
v  29.9840 -14.4968 1.5504
v  29.9840 14.3032 1.5504
v  29.9840 14.3032 11.5504
v  28.6981 -14.4968 11.5504
v  28.6981 14.3032 11.5504
v  28.6981 14.3032 1.5504
v  28.6981 -14.4968 1.5504
v  28.7041 12.3642 22.4337
v  28.7041 14.6232 22.4337
v  26.4451 14.6232 22.4337
v  28.7041 12.3642 1.0174
v  28.7041 14.6232 1.0174
v  26.4451 14.6232 1.0174
v  26.4451 -14.6235 22.4337
v  28.7041 -14.6235 22.4337
v  28.7041 -12.3645 22.4337
v  26.4451 -14.6235 1.0174
v  28.7041 -14.6235 1.0174
v  28.7041 -12.3645 1.0174
v  -26.4455 -14.6235 22.4337
v  -28.7045 -12.3645 22.4337
v  -28.7045 -14.6235 22.4337
v  -26.4455 -14.6235 1.0174
v  -28.7045 -14.6235 1.0174
v  -28.7045 -12.3645 1.0174
v  -28.7045 12.3642 22.4337
v  -26.4455 14.6232 22.4337
v  -28.7045 14.6232 22.4337
v  -28.7045 12.3642 1.0174
v  -28.7045 14.6232 1.0174
v  -26.4455 14.6232 1.0174
v  -26.4455 -12.2183 1.6569
v  -28.7045 -12.2183 3.9159
v  -28.7045 -12.2183 1.6569
v  -26.4455 12.2183 1.6569
v  -28.7045 12.2183 1.6569
v  -28.7045 12.2183 3.9159
v  26.4455 -12.2183 1.6569
v  28.7045 -12.2183 1.6569
v  28.7045 -12.2183 3.9159
v  26.4455 12.2183 1.6569
v  28.7045 12.2183 1.6569
v  28.7045 12.2183 3.9159
# 124 vertices

vn 0.5774 0.5774 0.5774
vn 0.5774 0.5774 -0.5774
vn -0.5774 0.5774 -0.5774
vn -0.5774 0.5774 0.5774
vn 0.5774 -0.5774 0.5774
vn -0.5774 -0.5774 0.5774
vn -0.5774 -0.5774 -0.5774
vn 0.5774 -0.5774 -0.5774
vn 0.3204 -0.7735 0.5469
vn -0.7735 0.3204 0.5469
vn 0.3827 -0.9239 0.0000
vn 0.7071 0.7071 -0.0000
vn -0.9239 0.3827 -0.0000
vn -0.7735 -0.3204 0.5469
vn 0.3204 0.7735 0.5469
vn -0.9239 -0.3827 0.0000
vn 0.7071 -0.7071 0.0000
vn 0.3827 0.9239 -0.0000
vn 0.7735 -0.3204 0.5469
vn -0.3204 0.7735 0.5469
vn 0.9239 -0.3827 0.0000
vn -0.7071 -0.7071 0.0000
vn -0.3827 0.9239 -0.0000
vn -0.3204 -0.7735 0.5469
vn 0.7735 0.3204 0.5469
vn -0.3827 -0.9239 0.0000
vn -0.7071 0.7071 -0.0000
vn 0.9239 0.3827 -0.0000
vn 0.7735 -0.5469 -0.3204
vn -0.3204 -0.5469 0.7735
vn 0.9239 -0.0000 -0.3827
vn -0.7071 -0.0000 -0.7071
vn -0.3827 0.0000 0.9239
vn -0.7735 -0.5469 -0.3204
vn 0.3204 -0.5469 0.7735
vn -0.9239 -0.0000 -0.3827
vn 0.7071 0.0000 -0.7071
vn 0.3827 0.0000 0.9239
# 38 vertex normals

vt 0.9257 0.1089 0.0000
vt 0.9257 0.1854 0.0000
vt 0.4665 0.1854 0.0000
vt 0.4665 0.1089 0.0000
vt 0.9257 0.0990 0.0000
vt 0.4665 0.0990 0.0000
vt 0.4665 0.0225 0.0000
vt 0.9257 0.0225 0.0000
vt 0.9257 0.1953 0.0000
vt 0.4665 0.1953 0.0000
vt 0.6404 0.9961 0.0000
vt 0.5639 0.9961 0.0000
vt 0.5639 0.9863 0.0000
vt 0.6404 0.9863 0.0000
vt 0.5604 0.9961 0.0000
vt 0.4839 0.9961 0.0000
vt 0.4839 0.9863 0.0000
vt 0.5604 0.9863 0.0000
vt 0.4631 0.1089 0.0000
vt 0.4631 0.1854 0.0000
vt 0.0039 0.1854 0.0000
vt 0.0039 0.1089 0.0000
vt 0.4631 0.0990 0.0000
vt 0.0039 0.0990 0.0000
vt 0.0039 0.0225 0.0000
vt 0.4631 0.0225 0.0000
vt 0.4631 0.1953 0.0000
vt 0.0039 0.1953 0.0000
vt 0.4804 0.9961 0.0000
vt 0.4039 0.9961 0.0000
vt 0.4039 0.9863 0.0000
vt 0.4804 0.9863 0.0000
vt 0.4004 0.9961 0.0000
vt 0.3239 0.9961 0.0000
vt 0.3239 0.9863 0.0000
vt 0.4004 0.9863 0.0000
vt 0.4631 0.2851 0.0000
vt 0.4631 0.3616 0.0000
vt 0.0039 0.3616 0.0000
vt 0.0039 0.2851 0.0000
vt 0.4631 0.2752 0.0000
vt 0.0039 0.2752 0.0000
vt 0.0039 0.1987 0.0000
vt 0.4631 0.1987 0.0000
vt 0.4631 0.3715 0.0000
vt 0.0039 0.3715 0.0000
vt 0.3204 0.9961 0.0000
vt 0.2439 0.9961 0.0000
vt 0.2439 0.9863 0.0000
vt 0.3204 0.9863 0.0000
vt 0.2404 0.9961 0.0000
vt 0.1639 0.9961 0.0000
vt 0.1639 0.9863 0.0000
vt 0.2404 0.9863 0.0000
vt 0.4631 0.4613 0.0000
vt 0.4631 0.5378 0.0000
vt 0.0039 0.5378 0.0000
vt 0.0039 0.4613 0.0000
vt 0.4631 0.4514 0.0000
vt 0.0039 0.4514 0.0000
vt 0.0039 0.3749 0.0000
vt 0.4631 0.3749 0.0000
vt 0.4631 0.5477 0.0000
vt 0.0039 0.5477 0.0000
vt 0.1604 0.9961 0.0000
vt 0.0839 0.9961 0.0000
vt 0.0839 0.9863 0.0000
vt 0.1604 0.9863 0.0000
vt 0.0804 0.9961 0.0000
vt 0.0039 0.9961 0.0000
vt 0.0039 0.9863 0.0000
vt 0.0804 0.9863 0.0000
vt 0.4631 0.6375 0.0000
vt 0.4631 0.7140 0.0000
vt 0.0039 0.7140 0.0000
vt 0.0039 0.6375 0.0000
vt 0.4631 0.6277 0.0000
vt 0.0039 0.6277 0.0000
vt 0.0039 0.5511 0.0000
vt 0.4631 0.5511 0.0000
vt 0.4631 0.7239 0.0000
vt 0.0039 0.7239 0.0000
vt 0.8977 0.9793 0.0000
vt 0.8212 0.9793 0.0000
vt 0.8212 0.9695 0.0000
vt 0.8977 0.9695 0.0000
vt 0.8177 0.9793 0.0000
vt 0.7412 0.9793 0.0000
vt 0.7412 0.9695 0.0000
vt 0.8177 0.9695 0.0000
vt 0.9257 0.4613 0.0000
vt 0.9257 0.5378 0.0000
vt 0.4665 0.5378 0.0000
vt 0.4665 0.4613 0.0000
vt 0.9257 0.4514 0.0000
vt 0.4665 0.4514 0.0000
vt 0.4665 0.3749 0.0000
vt 0.9257 0.3749 0.0000
vt 0.9257 0.5477 0.0000
vt 0.4665 0.5477 0.0000
vt 0.7377 0.9793 0.0000
vt 0.6612 0.9793 0.0000
vt 0.6612 0.9695 0.0000
vt 0.7377 0.9695 0.0000
vt 0.6577 0.9793 0.0000
vt 0.5812 0.9793 0.0000
vt 0.5812 0.9695 0.0000
vt 0.6577 0.9695 0.0000
vt 0.9257 0.2851 0.0000
vt 0.9257 0.3616 0.0000
vt 0.4665 0.3616 0.0000
vt 0.4665 0.2851 0.0000
vt 0.9257 0.2752 0.0000
vt 0.4665 0.2752 0.0000
vt 0.4665 0.1987 0.0000
vt 0.9257 0.1987 0.0000
vt 0.9257 0.3715 0.0000
vt 0.4665 0.3715 0.0000
vt 0.5777 0.9793 0.0000
vt 0.5012 0.9793 0.0000
vt 0.5012 0.9695 0.0000
vt 0.5777 0.9695 0.0000
vt 0.4977 0.9793 0.0000
vt 0.4212 0.9793 0.0000
vt 0.4212 0.9695 0.0000
vt 0.4977 0.9695 0.0000
vt 0.4482 0.8137 0.0000
vt 0.4482 0.8902 0.0000
vt 0.2278 0.8902 0.0000
vt 0.2278 0.8137 0.0000
vt 0.4482 0.8039 0.0000
vt 0.2278 0.8039 0.0000
vt 0.2278 0.7273 0.0000
vt 0.4482 0.7273 0.0000
vt 0.4482 0.9001 0.0000
vt 0.2278 0.9001 0.0000
vt 0.6617 0.9035 0.0000
vt 0.7382 0.9035 0.0000
vt 0.7382 0.9134 0.0000
vt 0.6617 0.9134 0.0000
vt 0.1639 0.9793 0.0000
vt 0.0874 0.9793 0.0000
vt 0.0874 0.9695 0.0000
vt 0.1639 0.9695 0.0000
vt 0.2243 0.8137 0.0000
vt 0.2243 0.8902 0.0000
vt 0.0039 0.8902 0.0000
vt 0.0039 0.8137 0.0000
vt 0.2243 0.8039 0.0000
vt 0.0039 0.8039 0.0000
vt 0.0039 0.7273 0.0000
vt 0.2243 0.7273 0.0000
vt 0.2243 0.9001 0.0000
vt 0.0039 0.9001 0.0000
vt 0.0039 0.9695 0.0000
vt 0.0804 0.9695 0.0000
vt 0.0804 0.9793 0.0000
vt 0.0039 0.9793 0.0000
vt 0.2473 0.9793 0.0000
vt 0.1708 0.9793 0.0000
vt 0.1708 0.9695 0.0000
vt 0.2473 0.9695 0.0000
vt 0.6869 0.6375 0.0000
vt 0.6869 0.7140 0.0000
vt 0.4665 0.7140 0.0000
vt 0.4665 0.6375 0.0000
vt 0.6869 0.6277 0.0000
vt 0.4665 0.6277 0.0000
vt 0.4665 0.5511 0.0000
vt 0.6869 0.5511 0.0000
vt 0.6869 0.7239 0.0000
vt 0.4665 0.7239 0.0000
vt 0.7451 0.9035 0.0000
vt 0.8217 0.9035 0.0000
vt 0.8217 0.9134 0.0000
vt 0.7451 0.9134 0.0000
vt 0.4143 0.9793 0.0000
vt 0.3377 0.9793 0.0000
vt 0.3377 0.9695 0.0000
vt 0.4143 0.9695 0.0000
vt 0.9108 0.6375 0.0000
vt 0.9108 0.7140 0.0000
vt 0.6904 0.7140 0.0000
vt 0.6904 0.6375 0.0000
vt 0.9108 0.6277 0.0000
vt 0.6904 0.6277 0.0000
vt 0.6904 0.5511 0.0000
vt 0.9108 0.5511 0.0000
vt 0.9108 0.7239 0.0000
vt 0.6904 0.7239 0.0000
vt 0.8286 0.9035 0.0000
vt 0.9051 0.9035 0.0000
vt 0.9051 0.9134 0.0000
vt 0.8286 0.9134 0.0000
vt 0.3308 0.9793 0.0000
vt 0.2543 0.9793 0.0000
vt 0.2543 0.9695 0.0000
vt 0.3308 0.9695 0.0000
vt 0.6063 0.9208 0.0000
vt 0.5890 0.9208 0.0000
vt 0.5890 0.9035 0.0000
vt 0.3386 0.9280 0.0000
vt 0.3386 0.9453 0.0000
vt 0.1747 0.9453 0.0000
vt 0.1747 0.9280 0.0000
vt 0.3386 0.9626 0.0000
vt 0.1747 0.9626 0.0000
vt 0.1747 0.9035 0.0000
vt 0.3386 0.9035 0.0000
vt 0.5337 0.9208 0.0000
vt 0.5164 0.9208 0.0000
vt 0.5164 0.9035 0.0000
vt 0.1678 0.9280 0.0000
vt 0.1678 0.9453 0.0000
vt 0.0039 0.9453 0.0000
vt 0.0039 0.9280 0.0000
vt 0.1678 0.9626 0.0000
vt 0.0039 0.9626 0.0000
vt 0.0039 0.9035 0.0000
vt 0.1678 0.9035 0.0000
vt 0.6305 0.9208 0.0000
vt 0.6132 0.9035 0.0000
vt 0.6132 0.9208 0.0000
vt 0.5094 0.9280 0.0000
vt 0.3456 0.9280 0.0000
vt 0.3456 0.9453 0.0000
vt 0.5094 0.9453 0.0000
vt 0.3456 0.9626 0.0000
vt 0.5094 0.9626 0.0000
vt 0.3456 0.9035 0.0000
vt 0.5094 0.9035 0.0000
vt 0.5821 0.9208 0.0000
vt 0.5648 0.9035 0.0000
vt 0.5648 0.9208 0.0000
vt 0.6203 0.8212 0.0000
vt 0.4564 0.8212 0.0000
vt 0.4564 0.8385 0.0000
vt 0.6203 0.8385 0.0000
vt 0.4564 0.8558 0.0000
vt 0.6203 0.8558 0.0000
vt 0.4564 0.7968 0.0000
vt 0.6203 0.7968 0.0000
vt 0.5579 0.9208 0.0000
vt 0.5406 0.9035 0.0000
vt 0.5406 0.9208 0.0000
vt 0.8326 0.7518 0.0000
vt 0.6456 0.7518 0.0000
vt 0.6456 0.7691 0.0000
vt 0.8326 0.7691 0.0000
vt 0.6456 0.7864 0.0000
vt 0.8326 0.7864 0.0000
vt 0.6456 0.7273 0.0000
vt 0.8326 0.7273 0.0000
vt 0.6547 0.9208 0.0000
vt 0.6375 0.9208 0.0000
vt 0.6375 0.9035 0.0000
vt 0.6386 0.7518 0.0000
vt 0.6386 0.7691 0.0000
vt 0.4516 0.7691 0.0000
vt 0.4516 0.7518 0.0000
vt 0.6386 0.7864 0.0000
vt 0.4516 0.7864 0.0000
vt 0.4516 0.7273 0.0000
vt 0.6386 0.7273 0.0000
# 264 texture coords

g 14028_wood_fruit_crate_SG
usemtl 14028_wood_fruit_crate
s 1
f 1/1/1 2/2/2 3/3/3 4/4/4 
f 5/5/5 6/6/6 7/7/7 8/8/8 
f 8/9/8 7/10/7 3/3/3 2/2/2 
f 5/11/5 8/12/8 2/13/2 1/14/1 
f 6/6/6 5/5/5 1/1/1 4/4/4 
f 7/15/7 6/16/6 4/17/4 3/18/3 
f 9/19/2 10/20/8 11/21/7 12/22/3 
f 13/23/1 14/24/4 15/25/6 16/26/5 
f 16/27/5 15/28/6 11/21/7 10/20/8 
f 13/29/1 16/30/5 10/31/8 9/32/2 
f 14/24/4 13/23/1 9/19/2 12/22/3 
f 15/33/6 14/34/4 12/35/3 11/36/7 
f 17/37/2 18/38/8 19/39/7 20/40/3 
f 21/41/1 22/42/4 23/43/6 24/44/5 
f 24/45/5 23/46/6 19/39/7 18/38/8 
f 21/47/1 24/48/5 18/49/8 17/50/2 
f 22/42/4 21/41/1 17/37/2 20/40/3 
f 23/51/6 22/52/4 20/53/3 19/54/7 
f 25/55/2 26/56/8 27/57/7 28/58/3 
f 29/59/1 30/60/4 31/61/6 32/62/5 
f 32/63/5 31/64/6 27/57/7 26/56/8 
f 29/65/1 32/66/5 26/67/8 25/68/2 
f 30/60/4 29/59/1 25/55/2 28/58/3 
f 31/69/6 30/70/4 28/71/3 27/72/7 
f 33/73/1 34/74/2 35/75/3 36/76/4 
f 37/77/5 38/78/6 39/79/7 40/80/8 
f 40/81/8 39/82/7 35/75/3 34/74/2 
f 37/83/5 40/84/8 34/85/2 33/86/1 
f 38/78/6 37/77/5 33/73/1 36/76/4 
f 39/87/7 38/88/6 36/89/4 35/90/3 
f 41/91/1 42/92/2 43/93/3 44/94/4 
f 45/95/5 46/96/6 47/97/7 48/98/8 
f 48/99/8 47/100/7 43/93/3 42/92/2 
f 45/101/5 48/102/8 42/103/2 41/104/1 
f 46/96/6 45/95/5 41/91/1 44/94/4 
f 47/105/7 46/106/6 44/107/4 43/108/3 
f 49/109/1 50/110/2 51/111/3 52/112/4 
f 53/113/5 54/114/6 55/115/7 56/116/8 
f 56/117/8 55/118/7 51/111/3 50/110/2 
f 53/119/5 56/120/8 50/121/2 49/122/1 
f 54/114/6 53/113/5 49/109/1 52/112/4 
f 55/123/7 54/124/6 52/125/4 51/126/3 
f 57/127/5 58/128/8 59/129/2 60/130/1 
f 61/131/6 62/132/4 63/133/3 64/134/7 
f 64/135/7 63/136/3 59/129/2 58/128/8 
f 61/137/6 64/138/7 58/139/8 57/140/5 
f 62/132/4 61/131/6 57/127/5 60/130/1 
f 63/141/3 62/142/4 60/143/1 59/144/2 
f 65/145/5 66/146/8 67/147/2 68/148/1 
f 69/149/6 70/150/4 71/151/3 72/152/7 
f 72/153/7 71/154/3 67/147/2 66/146/8 
f 69/155/6 72/156/7 66/157/8 65/158/5 
f 70/150/4 69/149/6 65/145/5 68/148/1 
f 71/159/3 70/160/4 68/161/1 67/162/2 
f 73/163/5 74/164/8 75/165/2 76/166/1 
f 77/167/6 78/168/4 79/169/3 80/170/7 
f 80/171/7 79/172/3 75/165/2 74/164/8 
f 77/173/6 80/174/7 74/175/8 73/176/5 
f 78/168/4 77/167/6 73/163/5 76/166/1 
f 79/177/3 78/178/4 76/179/1 75/180/2 
f 81/181/5 82/182/8 83/183/2 84/184/1 
f 85/185/6 86/186/4 87/187/3 88/188/7 
f 88/189/7 87/190/3 83/183/2 82/182/8 
f 85/191/6 88/192/7 82/193/8 81/194/5 
f 86/186/4 85/185/6 81/181/5 84/184/1 
f 87/195/3 86/196/4 84/197/1 83/198/2 
f 89/199/9 90/200/1 91/201/10 
f 92/202/11 93/203/12 90/204/1 89/205/9 
f 93/203/12 94/206/13 91/207/10 90/204/1 
f 91/208/10 94/209/13 92/202/11 89/205/9 
f 95/210/14 96/211/5 97/212/15 
f 98/213/16 99/214/17 96/215/5 95/216/14 
f 99/214/17 100/217/18 97/218/15 96/215/5 
f 97/219/15 100/220/18 98/213/16 95/216/14 
f 101/221/19 102/222/20 103/223/6 
f 104/224/21 101/225/19 103/226/6 105/227/22 
f 105/227/22 103/226/6 102/228/20 106/229/23 
f 102/230/20 101/225/19 104/224/21 106/231/23 
f 107/232/24 108/233/25 109/234/4 
f 110/235/26 107/236/24 109/237/4 111/238/27 
f 111/238/27 109/237/4 108/239/25 112/240/28 
f 108/241/25 107/236/24 110/235/26 112/242/28 
f 113/243/29 114/244/30 115/245/7 
f 116/246/31 113/247/29 115/248/7 117/249/32 
f 117/249/32 115/248/7 114/250/30 118/251/33 
f 114/252/30 113/247/29 116/246/31 118/253/33 
f 119/254/34 120/255/8 121/256/35 
f 122/257/36 123/258/37 120/259/8 119/260/34 
f 123/258/37 124/261/38 121/262/35 120/259/8 
f 121/263/35 124/264/38 122/257/36 119/260/34 
# 84 polygons - 6 triangles

